(((((((( The.Hit.List.2011.720p.BRRip.x264.AAC.mp4-Zen_Bud ))))))))

Format                           : MPEG-4
File size                        : 1.37 GiB
Duration                         : 1h 30mn
Overall bit rate                 : 2 177 Kbps



Video

Format                           : AVC
Format profile                   : Main@L3.1
Format settings, CABAC           : Yes
Format settings, ReFrames        : 4 frames
Duration                         : 1h 30mn
Bit rate mode                    : Variable
Bit rate                         : 1 980 Kbps
Width                            : 1 280 pixels
Height                           : 720 pixels
Display aspect ratio             : 16:90
Stream size                      : 1.25 GiB (91%)
Writing library                  : x264 core 115


Audio

Format                           : AAC
Format/Info                      : Advanced Audio Codec
Codec ID                         : 40
Duration                         : 1h 30mn
Bit rate                         : 192 Kbps
Channel(s)                       : 2 channels
Channel positions                : Front: L R
Sampling rate                    : 48.0 KHz
Stream size                      : 124 MiB (9%)
Language                         : English


Subtitel                         : Svenska [.srt ]


===========================================================

A disgruntled man creates a hit list with a stranger 
during a drunken night out and must then race to try 
to save those he marked for extermination as the 
bodies begin to pile up and all fingers point to him. 

==========================================================
